<svg width="2578" height="469" viewBox="0 0 2578 469" fill="none" xmlns="http://www.w3.org/2000/svg">
<path d="M270.457 25.6364H362.716V309.017C362.716 340.835 355.116 368.676 339.918 392.54C324.861 416.403 303.767 435.011 276.636 448.364C249.506 461.574 217.901 468.179 181.821 468.179C145.599 468.179 113.923 461.574 86.7926 448.364C59.6619 435.011 38.5682 416.403 23.5114 392.54C8.45455 368.676 0.926136 340.835 0.926136 309.017V25.6364H93.1847V301.134C93.1847 317.753 96.8068 332.526 104.051 345.452C111.438 358.378 121.807 368.534 135.159 375.92C148.511 383.307 164.065 387 181.821 387C199.719 387 215.273 383.307 228.483 375.92C241.835 368.534 252.134 358.378 259.378 345.452C266.764 332.526 270.457 317.753 270.457 301.134V25.6364ZM509.684 272.795V462H418.917V134.727H505.423V192.469H509.258C516.502 173.435 528.647 158.378 545.692 147.298C562.738 136.077 583.406 130.466 607.695 130.466C630.423 130.466 650.238 135.437 667.141 145.381C684.045 155.324 697.184 169.528 706.559 187.994C715.934 206.318 720.621 228.193 720.621 253.619V462H629.854V269.812C629.996 249.784 624.883 234.159 614.514 222.938C604.144 211.574 589.869 205.892 571.687 205.892C559.471 205.892 548.675 208.52 539.3 213.776C530.067 219.031 522.823 226.702 517.567 236.787C512.454 246.73 509.826 258.733 509.684 272.795ZM774.159 462V134.727H864.926V462H774.159ZM819.756 92.5398C806.261 92.5398 794.685 88.0653 785.026 79.1165C775.509 70.0256 770.75 59.1591 770.75 46.517C770.75 34.017 775.509 23.2926 785.026 14.3438C794.685 5.25283 806.261 0.707364 819.756 0.707364C833.25 0.707364 844.756 5.25283 854.273 14.3438C863.932 23.2926 868.761 34.017 868.761 46.517C868.761 59.1591 863.932 70.0256 854.273 79.1165C844.756 88.0653 833.25 92.5398 819.756 92.5398ZM1093.71 134.727V202.909H896.624V134.727H1093.71ZM941.369 56.3182H1032.14V361.432C1032.14 369.812 1033.41 376.347 1035.97 381.034C1038.53 385.58 1042.08 388.776 1046.62 390.622C1051.31 392.469 1056.71 393.392 1062.82 393.392C1067.08 393.392 1071.34 393.037 1075.6 392.327C1079.86 391.474 1083.13 390.835 1085.4 390.409L1099.68 457.952C1095.13 459.372 1088.74 461.006 1080.5 462.852C1072.26 464.841 1062.25 466.048 1050.46 466.474C1028.58 467.327 1009.41 464.415 992.931 457.739C976.596 451.062 963.883 440.693 954.792 426.631C945.701 412.568 941.227 394.812 941.369 373.364V56.3182ZM1508.56 25.6364V462H1428.87L1239.03 187.355H1235.83V462H1143.57V25.6364H1224.54L1412.89 300.068H1416.73V25.6364H1508.56ZM1712.95 468.392C1679.85 468.392 1651.23 461.361 1627.08 447.298C1603.08 433.094 1584.54 413.349 1571.47 388.065C1558.4 362.639 1551.87 333.165 1551.87 299.642C1551.87 265.835 1558.4 236.29 1571.47 211.006C1584.54 185.58 1603.08 165.835 1627.08 151.773C1651.23 137.568 1679.85 130.466 1712.95 130.466C1746.05 130.466 1774.6 137.568 1798.6 151.773C1822.75 165.835 1841.36 185.58 1854.43 211.006C1867.5 236.29 1874.03 265.835 1874.03 299.642C1874.03 333.165 1867.5 362.639 1854.43 388.065C1841.36 413.349 1822.75 433.094 1798.6 447.298C1774.6 461.361 1746.05 468.392 1712.95 468.392ZM1713.38 398.08C1728.43 398.08 1741 393.818 1751.09 385.295C1761.17 376.631 1768.77 364.841 1773.89 349.926C1779.14 335.011 1781.77 318.037 1781.77 299.003C1781.77 279.969 1779.14 262.994 1773.89 248.08C1768.77 233.165 1761.17 221.375 1751.09 212.71C1741 204.045 1728.43 199.713 1713.38 199.713C1698.18 199.713 1685.39 204.045 1675.02 212.71C1664.8 221.375 1657.06 233.165 1651.8 248.08C1646.69 262.994 1644.13 279.969 1644.13 299.003C1644.13 318.037 1646.69 335.011 1651.8 349.926C1657.06 364.841 1664.8 376.631 1675.02 385.295C1685.39 393.818 1698.18 398.08 1713.38 398.08ZM2035.65 467.327C2010.79 467.327 1988.27 460.935 1968.1 448.151C1948.08 435.224 1932.17 416.261 1920.38 391.261C1908.73 366.119 1902.9 335.295 1902.9 298.79C1902.9 261.29 1908.94 230.111 1921.02 205.253C1933.09 180.253 1949.14 161.574 1969.17 149.216C1989.34 136.716 2011.43 130.466 2035.43 130.466C2053.76 130.466 2069.03 133.591 2081.24 139.841C2093.6 145.949 2103.54 153.619 2111.07 162.852C2118.74 171.943 2124.57 180.892 2128.54 189.699H2131.31V25.6364H2221.87V462H2132.38V409.585H2128.54C2124.28 418.676 2118.25 427.696 2110.43 436.645C2102.76 445.452 2092.75 452.767 2080.39 458.591C2068.17 464.415 2053.26 467.327 2035.65 467.327ZM2064.41 395.097C2079.04 395.097 2091.4 391.119 2101.48 383.165C2111.71 375.068 2119.52 363.776 2124.92 349.287C2130.46 334.798 2133.23 317.824 2133.23 298.364C2133.23 278.903 2130.53 262 2125.13 247.653C2119.74 233.307 2111.92 222.227 2101.7 214.415C2091.47 206.602 2079.04 202.696 2064.41 202.696C2049.5 202.696 2036.92 206.744 2026.7 214.841C2016.47 222.937 2008.73 234.159 2003.47 248.506C1998.22 262.852 1995.59 279.472 1995.59 298.364C1995.59 317.398 1998.22 334.23 2003.47 348.861C2008.87 363.349 2016.61 374.713 2026.7 382.952C2036.92 391.048 2049.5 395.097 2064.41 395.097ZM2427.64 468.392C2393.98 468.392 2365 461.574 2340.71 447.938C2316.56 434.159 2297.96 414.699 2284.89 389.557C2271.82 364.273 2265.28 334.372 2265.28 299.855C2265.28 266.19 2271.82 236.645 2284.89 211.219C2297.96 185.793 2316.35 165.977 2340.07 151.773C2363.94 137.568 2391.92 130.466 2424.02 130.466C2445.61 130.466 2465.71 133.946 2484.32 140.906C2503.07 147.724 2519.4 158.023 2533.32 171.801C2547.39 185.58 2558.32 202.909 2566.14 223.79C2573.95 244.528 2577.86 268.818 2577.86 296.659V321.588H2301.51V265.338H2492.42C2492.42 252.27 2489.57 240.693 2483.89 230.608C2478.21 220.523 2470.33 212.639 2460.24 206.957C2450.3 201.134 2438.72 198.222 2425.51 198.222C2411.73 198.222 2399.52 201.418 2388.86 207.81C2378.35 214.06 2370.11 222.511 2364.15 233.165C2358.18 243.676 2355.13 255.395 2354.99 268.321V321.801C2354.99 337.994 2357.97 351.986 2363.94 363.776C2370.04 375.565 2378.64 384.656 2389.72 391.048C2400.8 397.44 2413.94 400.636 2429.13 400.636C2439.22 400.636 2448.45 399.216 2456.83 396.375C2465.21 393.534 2472.39 389.273 2478.35 383.591C2484.32 377.909 2488.86 370.949 2491.99 362.71L2575.94 368.25C2571.68 388.42 2562.94 406.034 2549.73 421.091C2536.66 436.006 2519.76 447.653 2499.02 456.034C2478.42 464.273 2454.63 468.392 2427.64 468.392Z" fill="black"/>
</svg>
